<?xml version="1.0" encoding="UTF-8"?>
<svg width="48" height="48" viewBox="0 0 48 48" fill="none" xmlns="http://www.w3.org/2000/svg">
    <rect x="6" y="14" width="36" height="8" stroke="currentColor" stroke-width="3" stroke-linecap="round" stroke-linejoin="round"/>
    <path d="M24 14V42" stroke="currentColor" stroke-width="3" stroke-linecap="round" stroke-linejoin="round"/>
    <path d="M10 22V42H38V22" stroke="currentColor" stroke-width="3" stroke-linecap="round" stroke-linejoin="round"/>
    <path d="M24 14C24 14 24 8 24 6C24 3.79086 22.2091 2 20 2C17.7909 2 16 3.79086 16 6C16 9.5 24 14 24 14Z" stroke="currentColor" stroke-width="3" stroke-linecap="round" stroke-linejoin="round"/>
    <path d="M24 14C24 14 24 8 24 6C24 3.79086 25.7909 2 28 2C30.2091 2 32 3.79086 32 6C32 9.5 24 14 24 14Z" stroke="currentColor" stroke-width="3" stroke-linecap="round" stroke-linejoin="round"/>
</svg> 